<?xml version="1.0" encoding="UTF-8"?><svg id="Layer_2" xmlns="http://www.w3.org/2000/svg" xmlns:xlink="http://www.w3.org/1999/xlink" viewBox="0 0 157.96 146.55"><defs><style>.cls-1{fill:url(#linear-gradient-2);}.cls-2{fill:url(#Blackstone-2);}.cls-3{fill:url(#Blackstone-3);}.cls-4{fill:url(#linear-gradient-4);}.cls-5{fill:url(#radial-gradient);}.cls-6{fill:url(#linear-gradient-3);}.cls-7{fill:url(#linear-gradient-5);}.cls-8{fill:url(#Blackstone-4);}.cls-9{fill:url(#Blackstone);}.cls-10{fill:url(#linear-gradient-7);}.cls-11{fill:url(#New_Gradient_Swatch_11-2);}.cls-12{fill:url(#linear-gradient-6);}.cls-13{fill:url(#New_Gradient_Swatch_11);}.cls-14{fill:url(#New_Gradient_Swatch_10);}.cls-15{fill:url(#New_Gradient_Swatch_11-3);}.cls-16{fill:url(#linear-gradient);}</style><linearGradient id="Blackstone" x1="93.4" y1="115" x2="134.53" y2="115" gradientTransform="translate(1.64 -.83) rotate(.63)" gradientUnits="userSpaceOnUse"><stop offset="0" stop-color="#8f9194"/><stop offset=".01" stop-color="#8c8e91"/><stop offset=".11" stop-color="#76777a"/><stop offset=".22" stop-color="#666769"/><stop offset=".33" stop-color="#5c5e60"/><stop offset=".49" stop-color="#5a5b5d"/><stop offset=".71" stop-color="#575759"/><stop offset=".89" stop-color="#4d4e50"/><stop offset="1" stop-color="#434345"/></linearGradient><linearGradient id="linear-gradient" x1="107.91" y1="130.3" x2="111.56" y2="130.3" gradientTransform="translate(1.64 -.83) rotate(.63)" gradientUnits="userSpaceOnUse"><stop offset="0" stop-color="#333132"/><stop offset="0" stop-color="#333132"/><stop offset=".21" stop-color="#3b3a3b"/><stop offset=".49" stop-color="#3e3e3f"/><stop offset=".88" stop-color="#404042"/><stop offset="1" stop-color="#434345"/></linearGradient><linearGradient id="linear-gradient-2" x1="123.37" y1="129.78" x2="127.65" y2="129.78" xlink:href="#linear-gradient"/><linearGradient id="linear-gradient-3" x1="132.37" y1="125.29" x2="136.17" y2="125.29" xlink:href="#linear-gradient"/><linearGradient id="Blackstone-2" x1="70.37" y1="123.41" x2="93.3" y2="123.41" xlink:href="#Blackstone"/><linearGradient id="linear-gradient-4" x1="69.46" y1="130.81" x2="71.6" y2="130.81" xlink:href="#linear-gradient"/><linearGradient id="linear-gradient-5" x1="91.43" y1="136.69" x2="94.96" y2="136.69" xlink:href="#linear-gradient"/><linearGradient id="linear-gradient-6" x1="83.07" y1="140.07" x2="86.66" y2="140.07" xlink:href="#linear-gradient"/><linearGradient id="linear-gradient-7" x1="72.15" y1="143.1" x2="74.99" y2="143.1" xlink:href="#linear-gradient"/><linearGradient id="New_Gradient_Swatch_11" x1="3.29" y1="53.25" x2="146.97" y2="53.25" gradientTransform="translate(1.64 -.83) rotate(.63)" gradientUnits="userSpaceOnUse"><stop offset="0" stop-color="#2d2d40"/><stop offset="1" stop-color="#1d1e1e"/></linearGradient><linearGradient id="Blackstone-3" x1="137.41" y1="19.81" x2="156.63" y2="19.81" xlink:href="#Blackstone"/><linearGradient id="Blackstone-4" x1="132.6" y1="22.71" x2="155" y2="22.71" xlink:href="#Blackstone"/><linearGradient id="New_Gradient_Swatch_10" x1="0" y1="77.63" x2="81.98" y2="77.63" gradientUnits="userSpaceOnUse"><stop offset="0" stop-color="#142034"/><stop offset=".12" stop-color="#1b2233"/><stop offset=".35" stop-color="#222433"/><stop offset="1" stop-color="#242533"/></linearGradient><radialGradient id="radial-gradient" cx="101.96" cy="82.18" fx="101.96" fy="82.18" r="1.88" gradientTransform="translate(-8.24 -112.49) rotate(2.82) scale(1.43) skewX(-.03)" gradientUnits="userSpaceOnUse"><stop offset="0" stop-color="#fff"/><stop offset=".09" stop-color="#fcfcfc" stop-opacity="1"/><stop offset=".15" stop-color="#f4f3f4" stop-opacity=".98"/><stop offset=".19" stop-color="#e6e5e5" stop-opacity=".96"/><stop offset=".24" stop-color="#d2d0d1" stop-opacity=".93"/><stop offset=".28" stop-color="#b8b6b6" stop-opacity=".9"/><stop offset=".31" stop-color="#989596" stop-opacity=".85"/><stop offset=".35" stop-color="#736e70" stop-opacity=".79"/><stop offset=".38" stop-color="#474143" stop-opacity=".73"/><stop offset=".42" stop-color="#171012" stop-opacity=".66"/><stop offset=".42" stop-color="#130c0e" stop-opacity=".65"/><stop offset=".45" stop-color="#130c0e" stop-opacity=".7"/><stop offset=".78" stop-color="#130c0e" stop-opacity=".95"/><stop offset="1" stop-color="#374ea1" stop-opacity=".95"/></radialGradient><linearGradient id="New_Gradient_Swatch_11-2" x1="24.54" y1="63.42" x2="111.57" y2="63.42" gradientTransform="matrix(1,0,0,1,0,0)" xlink:href="#New_Gradient_Swatch_11"/><linearGradient id="New_Gradient_Swatch_11-3" x1="57.64" y1="46.98" x2="116.6" y2="46.98" gradientTransform="matrix(1,0,0,1,0,0)" xlink:href="#New_Gradient_Swatch_11"/></defs><g id="title"><g id="crow"><g id="talons"><path class="cls-9" d="M108.23,129.07s.16-1.28,3.49-3.4c3.46-2.2.84-4.1.84-4.1l-18.67-18.43,3.22-3.43s18.95,17.74,20.03,18.92,4.2,2.29,5.55,2.73,5.08.49,5.7.31c1.19-.34,5.4.87,5.87,1.53,1.94,2.72-2.06,2.63-2.06,2.63,0,0-11.57-3.5-7.06.79.87.83.94,1.05.91,1.74-.09,2.43-2.71,2.26-3.1,1.63-3.5-5.57-5.26-4.3-7.55-3.13-3.03,1.55-2.59,2.96-4.55,3.85-1.72.78-2.63-1.65-2.63-1.65Z"/><path class="cls-16" d="M108.41,133.77s-1.2-2.95,1.12-5.38c2.32-2.42,2.24,1.2,2.24,1.2l-3.36,4.17Z"/><path class="cls-1" d="M127.81,133.34s.34-3.33-2.11-5.39-2.1,1.62-2.1,1.62l4.21,3.77Z"/><path class="cls-6" d="M136.4,127.9s-.06-3.54-2.78-3.92c-1.91-.26-.44,1.78-.44,1.78l3.23,2.14Z"/><path class="cls-2" d="M76.67,104.3l1.09,14.81s1.37,5.47-3.08,9.28c-.95.82-1.73-1.28-3.99,1.32-.55.63.87,1.37,1.45,1.12,2.28-.99,5.29-.74,2.79,2.63-.26.36-4.14,4.75-2.11,8.53,2.02,3.78,3.48-1.88,3.48-1.88,0,0-.3-7.07,1.57-7.84s2.64,3.72,2.64,3.72c0,0,1.48,5.98,3.91,2.84s-.93-6.95-.93-6.95c0,0,3.02-.72,5.01,3.11,1.98,3.83,4.06,1.38,4.06,1.38,0,0,3.18-2.23-2.45-5.99s-6.39-2.76-6.39-2.76c0,0-2-1.39-1.74-5.07s.48-15.29-.86-17.77c-1.34-2.47-4.45-.49-4.45-.49Z"/><path class="cls-4" d="M69.88,132.13s-.66-1.36.26-2.11,1.41-1.04,1.64.14-1.13-.58-1.9,1.97Z"/><path class="cls-7" d="M94.91,139.45s.94-3.01-1.59-4.72-1.55,2.05-1.55,2.05c0,0,2.37.12,3.14,2.67Z"/><path class="cls-12" d="M86.62,142.89s.79-4.17-1.83-5.21-1.26,1.71-1.26,1.71c0,0,1.31,1.06,3.09,3.5Z"/><path class="cls-10" d="M73,146.55s-1.3-4.13-.55-5.49,2.08-2.51,2.56-.02-1.8.41-2.01,5.51Z"/></g><path class="cls-13" d="M89.82,98.7s2.57,7.97,7.45,8.59c4.89.62,4.5-3.74,4.5-3.74,0,0-.37-3.52-1.66-6.46-.75-1.71.23-3.69,2.03-4.22,2.07-.61,4.74-1.62,7.71-3.25,3.8-2.26,13.92-7.18,20.6-20.15,3.94-7.64,9.18-21.79,9-29.22-.23-9.22,8.96-23.51,8.96-23.51,0,0,.02-18.09-18.52-16.65-6.59-.57-17.7,7.87-17.7,7.87,0,0-15.42,14.9-15.63,15.78-.72,2.97-47.7,33.1-47.7,33.1l-28.61,14.39-7.95,6.83-6.16,1.32-2.15,3.87,7.16-1.41,1.12,2.18,3.24-1.11.53,2.15,2.32-.88,2.83-.11-.93,1.65,4.18-2.24-3,3.33,4.73-2.02-2.31,2.8,2.87-.61-2.04,3,2.89-.99-.88,2.4,2.07-1.68,1.57-1.24.39,1.71,2.76-2.31-.29,1.96,3.03-1.92,3.22-1.91-1.05,2.11,3.53-2.46-2.31,2.8,3.98-2.15-1.56,2.93,5.29-3.78-.4,2.24,3.89-2.07-.37,1.77,2.41.34-.63,3.07,1.74-.76-.63,1.19,2.44-1.48-.27,1.59,3.88-1.88-1.24,2.2,1.67.67-1.16,2.43,4.88-1.22-3.44,3.79,5.93-2.62s-3.73,4.18-3.38,4.85c.48.92,5.09-1.58,5.1-1.58-.44,1.12-.88,2.24-1.32,3.36l5.11-5.77-1.99,3.85,2.53-1.47-.75,3.63,2.4-1.73.62,1.78,1.25,3.1c.6,1.31,1.89,2.16,3.3,2.16,1.94.01,3.01-1.58,3.08-1.69l.48-5.05,1.91-4.23,1.22,3.43,2.49-.09.25,2.65,1.48-3.22Z"/><g id="beak"><path class="cls-3" d="M138.85,18.64s4.3.8,19.12,9c0,0,.33-6.07-9.54-10.91-9.87-4.84-9.09-2.71-9.09-2.71,0,0,1.06,1.44-.49,4.62Z"/><path class="cls-8" d="M156.33,27.84s-15.89-8.43-18.06-9.11c-2.18-.68-6.12,1.03-3.25,3.06s15.09,8.35,21.31,6.05Z"/></g><polygon class="cls-14" points="34.8 64.73 27.12 67.34 27.47 68.14 17.43 70.92 19.75 71.45 10.55 75.03 5.98 76.09 2.16 79.34 4.3 83.83 0 88.16 5.44 86.33 5.47 88.4 8.1 86.35 7.47 88.55 10.2 87.06 9.85 89.29 14.04 86.69 12.98 88.51 17.94 85.96 14.35 89.81 17.31 88.92 16.55 90.53 21.92 88.05 22.2 90.23 28.01 86.83 27.61 89.8 32.77 87.56 31.61 89.25 36.39 86.65 36.41 88.99 39.42 86.56 39.44 89.47 42.04 87.11 42.57 88.31 45.75 87.16 45.57 88.65 50.04 85.38 50.68 86.4 54.8 84.51 54.58 86.37 58.18 84.27 61.42 80.89 61.09 83.78 64.84 79.89 64.67 81.38 69.7 78.17 68.77 80.5 73.04 77.22 72.53 78.84 76.08 75.79 75.55 77.71 81.98 74.2 60.45 67.66 34.8 64.73"/><ellipse id="eye" class="cls-5" cx="131.61" cy="11.44" rx="2.69" ry="2.68"/><g id="wing"><polygon class="cls-11" points="66.71 47.9 61.12 49.34 55.17 52.59 55.24 53.84 49.86 55.21 50.63 56.3 44.31 57.27 45.74 58.21 39.56 58.95 40.13 59.7 31.55 61.94 34.36 62.31 26.51 64.71 28.42 65.77 24.54 67.82 26.32 68.33 24.58 70.21 27.02 70.49 25.97 71.41 31.69 69.61 28.69 71.72 33.39 70.47 31.31 72.02 37.33 71.77 32.36 74.51 38.43 73.78 35.45 75.71 41.55 74.71 39.86 76.22 48.27 74.15 44.64 76.76 48.97 76.31 51.86 75.22 50.7 76.98 54.45 75.81 53.54 77.12 57.61 77.3 56.27 78.94 60.61 76.79 59.05 78.79 66.95 75.44 65.15 77.79 70.94 74.57 70.67 76.9 75.08 74.19 74.26 75.52 81.45 72.83 81.34 74.25 87.59 71.18 86.6 73.15 91.08 70.64 89.59 72.83 95.67 69.55 93.72 71.6 99.25 68.17 97.71 70.83 102.47 67.51 102.63 68.68 106.1 65.17 106.31 67.01 109.23 62.01 109.66 64.59 111.57 58.7 66.71 47.9"/><path class="cls-15" d="M95.12,30.73s9.78-4.84,18.74,8.95c8.96,13.79-6.96,23.97-6.96,23.97l-.51-2.99-4.52,2.89.97-3.39-6.54,3.88,2.05-4.59-6.98,3.64,4.08-4.83-8.07,3.24,2.92-3.92-8.91,4.75,4.96-5.1-9.19,4.62,6-5.84-9.94,4.54,4.26-4.81-8.72,3.92,6.41-5.32-10.63,3.98,5.79-4.82-10.51,4.71,6.16-4.93-6.36,1.63,2.42-3.44-4.4,1.64,3-4.02,7.18-3.41-1.25-.18,8.23-4.51-1.44.04,7.19-3.17-1.78-.03,7.79-3.3-1.07-.26,4-.84-.81-.37,6.44-2.36Z"/></g></g></g></svg>